<?xml version="1.0"?>
<svg xmlns="http://www.w3.org/2000/svg" xmlns:xlink="http://www.w3.org/1999/xlink" xmlns:svgjs="http://svgjs.com/svgjs" version="1.1" width="512" height="512" x="0" y="0" viewBox="0 0 512 512" style="enable-background:new 0 0 512 512" xml:space="preserve" class=""><g><g xmlns="http://www.w3.org/2000/svg"><path d="m490.734 160.612h-1.476c-2.771-9.009-6.384-17.736-10.797-26.081l1.106-1.108c8.259-8.271 8.259-21.731 0-30.004l-32.9-32.953c-4.019-4.024-9.366-6.241-15.056-6.241s-11.038 2.217-15.057 6.242l-1.035 1.037c-8.324-4.414-17.031-8.028-26.017-10.802v-1.536c0-11.714-9.54-21.244-21.265-21.244h-46.489c-11.726 0-21.266 9.53-21.266 21.244v1.536c-8.987 2.774-17.693 6.389-26.017 10.802l-1.035-1.037c-4.019-4.025-9.366-6.242-15.057-6.242-5.69 0-11.038 2.216-15.056 6.241l-32.9 32.952c-8.259 8.272-8.259 21.732 0 30.004l1.106 1.108c-4.412 8.344-8.025 17.072-10.797 26.081h-1.476c-11.726 0-21.266 9.53-21.266 21.244v32.65c-.11-.035-.219-.071-.329-.106-.018-10.602-8.657-19.223-19.273-19.223h-38.27c-10.617 0-19.256 8.62-19.274 19.223-6.647 2.128-13.107 4.81-19.317 8.02-3.635-3.606-8.453-5.59-13.579-5.59-5.157 0-10.004 2.009-13.646 5.657l-27.083 27.126c-7.484 7.496-7.486 19.693-.005 27.192-3.211 6.227-5.892 12.704-8.019 19.37-10.588.046-19.189 8.666-19.189 19.256v38.394c0 10.59 8.601 19.211 19.19 19.256 2.127 6.665 4.809 13.143 8.019 19.37-7.482 7.499-7.48 19.695.005 27.192l27.083 27.126c3.642 3.648 8.488 5.657 13.646 5.657 5.126 0 9.944-1.985 13.579-5.59 6.21 3.211 12.669 5.892 19.317 8.02.018 10.603 8.657 19.223 19.274 19.223h38.27c10.616 0 19.255-8.62 19.273-19.223 6.648-2.128 13.106-4.81 19.317-8.02 3.635 3.605 8.454 5.59 13.579 5.59 5.157 0 10.003-2.009 13.645-5.657l27.083-27.125c7.486-7.497 7.488-19.694.006-27.192 3.21-6.228 5.892-12.704 8.019-19.37 10.589-.045 19.19-8.666 19.19-19.256v-13.191c6.825 3.299 14.422 6.497 21.987 8.948v1.606c0 11.714 9.54 21.244 21.266 21.244h46.489c11.726 0 21.265-9.53 21.265-21.244v-1.536c8.987-2.774 17.693-6.389 26.017-10.802l1.036 1.038c4.019 4.025 9.366 6.241 15.057 6.241 5.69 0 11.037-2.217 15.056-6.242l32.9-32.952c8.259-8.272 8.259-21.732 0-30.004l-1.106-1.108c4.413-8.345 8.025-17.07 10.797-26.081h1.476c11.726 0 21.266-9.53 21.266-21.244v-46.641c-.001-11.715-9.541-21.245-21.267-21.245zm-232.239 192.468h-6.734c-4.584 0-8.581 3.117-9.698 7.563-2.511 9.99-6.468 19.55-11.762 28.415-2.347 3.931-1.725 8.953 1.509 12.192l4.785 4.793-26.044 26.085-4.763-4.77c-3.242-3.247-8.279-3.871-12.215-1.513-8.85 5.301-18.392 9.263-28.361 11.776-4.442 1.12-7.556 5.115-7.556 9.697v6.76h-36.817v-6.76c0-4.582-3.113-8.577-7.556-9.697-9.97-2.513-19.512-6.475-28.361-11.776-3.936-2.358-8.973-1.735-12.215 1.513l-4.763 4.77-26.045-26.085 4.786-4.793c3.234-3.239 3.856-8.262 1.509-12.192-5.294-8.866-9.251-18.427-11.761-28.415-1.118-4.446-5.115-7.563-9.699-7.563h-6.734v-36.906h6.734c4.584 0 8.581-3.117 9.699-7.563 2.51-9.989 6.467-19.549 11.761-28.414 2.347-3.931 1.725-8.953-1.509-12.192l-4.786-4.793 26.045-26.085 4.763 4.77c3.243 3.247 8.278 3.871 12.215 1.513 8.849-5.3 18.391-9.263 28.362-11.777 4.442-1.12 7.555-5.115 7.555-9.696v-6.76h36.817v6.76c0 4.581 3.113 8.577 7.555 9.696 9.971 2.514 19.513 6.477 28.362 11.777 3.936 2.358 8.973 1.735 12.215-1.513l4.764-4.771 26.044 26.086-4.786 4.793c-3.234 3.24-3.855 8.262-1.509 12.192 5.293 8.864 9.251 18.425 11.762 28.415 1.117 4.446 5.114 7.563 9.698 7.563h6.734zm233.505-124.583c0 .686-.568 1.244-1.266 1.244h-9.063c-4.584 0-8.581 3.117-9.698 7.563-3.101 12.339-7.988 24.146-14.527 35.096-2.347 3.931-1.725 8.953 1.509 12.192l6.458 6.469c.479.48.479 1.262 0 1.743l-32.9 32.952c-.493.494-1.314.494-1.806 0l-6.403-6.414c-3.242-3.249-8.279-3.872-12.216-1.514-10.93 6.547-22.716 11.441-35.032 14.546-4.442 1.12-7.556 5.115-7.556 9.697v9.116c0 .685-.567 1.244-1.265 1.244h-46.489c-.698 0-1.266-.558-1.266-1.244v-9.116c0-4.581-3.113-8.577-7.556-9.697-10.078-2.54-23.161-7.982-34.431-14.247v-2.697c0-10.59-8.601-19.211-19.19-19.256-2.127-6.667-4.809-13.143-8.02-19.37 7.482-7.499 7.479-19.696-.005-27.192l-27.083-27.127c-3.642-3.647-8.488-5.657-13.646-5.657-4.663 0-9.072 1.643-12.567 4.655v-39.628c0-.686.568-1.244 1.266-1.244h9.062c4.584 0 8.581-3.117 9.698-7.563 3.101-12.338 7.988-24.146 14.527-35.097 2.347-3.93 1.725-8.952-1.509-12.192l-6.458-6.469c-.48-.481-.48-1.262 0-1.743l32.9-32.952c.493-.494 1.312-.494 1.806 0l6.403 6.413c3.242 3.248 8.279 3.872 12.215 1.513 10.93-6.547 22.716-11.441 35.032-14.546 4.442-1.12 7.556-5.116 7.556-9.697v-9.116c0-.686.568-1.244 1.266-1.244h46.489c.698 0 1.265.558 1.265 1.244v9.116c0 4.582 3.113 8.577 7.556 9.697 12.316 3.104 24.103 7.999 35.032 14.546 3.937 2.357 8.974 1.734 12.216-1.514l6.402-6.413c.494-.495 1.314-.495 1.807 0l32.9 32.952c.48.481.48 1.263 0 1.743l-6.458 6.469c-3.234 3.24-3.856 8.262-1.509 12.192 6.539 10.951 11.426 22.759 14.527 35.097 1.117 4.446 5.114 7.563 9.698 7.563h9.063c.698 0 1.266.558 1.266 1.244z" fill="#ffffff" data-original="#000000" style=""/><path d="m344.992 115.228c-49.529 0-89.823 40.351-89.823 89.949s40.294 89.949 89.823 89.949 89.823-40.351 89.823-89.949-40.294-89.949-89.823-89.949zm0 159.897c-38.5 0-69.823-31.379-69.823-69.949s31.323-69.949 69.823-69.949 69.823 31.379 69.823 69.949c0 38.571-31.322 69.949-69.823 69.949z" fill="#ffffff" data-original="#000000" style=""/><path d="m139.248 258.814c-41.747 0-75.71 34.01-75.71 75.813s33.963 75.813 75.71 75.813 75.71-34.01 75.71-75.813c-.001-41.803-33.964-75.813-75.71-75.813zm0 131.626c-30.719 0-55.71-25.038-55.71-55.813 0-30.776 24.991-55.813 55.71-55.813s55.71 25.038 55.71 55.813c-.001 30.776-24.992 55.813-55.71 55.813z" fill="#ffffff" data-original="#000000" style=""/></g></g></svg>
